<svg width="20" height="20" viewBox="0 0 20 20" fill="none" xmlns="http://www.w3.org/2000/svg">
<rect width="20" height="20" fill="white"/>
<path d="M9.99992 10C10.4583 10 10.8506 9.8368 11.177 9.51042C11.5034 9.18403 11.6666 8.79167 11.6666 8.33333C11.6666 7.875 11.5034 7.48264 11.177 7.15625C10.8506 6.82986 10.4583 6.66667 9.99992 6.66667C9.54158 6.66667 9.14922 6.82986 8.82283 7.15625C8.49645 7.48264 8.33325 7.875 8.33325 8.33333C8.33325 8.79167 8.49645 9.18403 8.82283 9.51042C9.14922 9.8368 9.54158 10 9.99992 10ZM9.99992 16.125C11.6944 14.5694 12.9513 13.1562 13.7708 11.8854C14.5902 10.6146 14.9999 9.48611 14.9999 8.5C14.9999 6.98611 14.5173 5.74653 13.552 4.78125C12.5867 3.81597 11.4027 3.33333 9.99992 3.33333C8.59714 3.33333 7.41311 3.81597 6.44784 4.78125C5.48256 5.74653 4.99992 6.98611 4.99992 8.5C4.99992 9.48611 5.40964 10.6146 6.22909 11.8854C7.04853 13.1562 8.30547 14.5694 9.99992 16.125ZM9.99992 18.3333C7.76381 16.4306 6.09367 14.6632 4.9895 13.0312C3.88534 11.3993 3.33325 9.88889 3.33325 8.5C3.33325 6.41667 4.00339 4.75694 5.34367 3.52083C6.68395 2.28472 8.23603 1.66667 9.99992 1.66667C11.7638 1.66667 13.3159 2.28472 14.6562 3.52083C15.9964 4.75694 16.6666 6.41667 16.6666 8.5C16.6666 9.88889 16.1145 11.3993 15.0103 13.0312C13.9062 14.6632 12.236 16.4306 9.99992 18.3333Z" fill="#4ECA04"/>
</svg>
